<svg xmlns="http://www.w3.org/2000/svg" viewBox="0 0 600 400" width="600" height="400">
  <defs>
    <linearGradient id="bg6" x1="0%" y1="0%" x2="100%" y2="100%">
      <stop offset="0%" style="stop-color:#fd79a8;stop-opacity:1" />
      <stop offset="100%" style="stop-color:#e84393;stop-opacity:1" />
    </linearGradient>
  </defs>
  <rect width="600" height="400" fill="url(#bg6)"/>
  <!-- Ground -->
  <rect x="0" y="310" width="600" height="90" fill="#636e72" opacity="0.2"/>
  <!-- Church Main Body -->
  <rect x="200" y="160" width="200" height="150" fill="#ffeaa7" opacity="0.9" rx="3"/>
  <!-- Church front facade detail -->
  <rect x="195" y="155" width="210" height="8" fill="#fdcb6e" opacity="0.7"/>
  <!-- Main Dome -->
  <ellipse cx="300" cy="160" rx="60" ry="35" fill="#dfe6e9" opacity="0.9"/>
  <ellipse cx="300" cy="155" rx="45" ry="25" fill="#ecf0f1" opacity="0.9"/>
  <!-- Dome spire -->
  <rect x="297" y="100" width="6" height="30" fill="#636e72" opacity="0.8"/>
  <circle cx="300" cy="96" r="8" fill="#f9d423" opacity="0.7"/>
  <!-- Cross on top -->
  <rect x="298" y="78" width="4" height="18" fill="#f9d423" opacity="0.8"/>
  <rect x="292" y="84" width="16" height="4" fill="#f9d423" opacity="0.8"/>
  <!-- Side towers -->
  <rect x="195" y="180" width="35" height="130" fill="#ffeaa7" opacity="0.85"/>
  <ellipse cx="212" cy="180" rx="18" ry="12" fill="#dfe6e9" opacity="0.8"/>
  <rect x="210" y="158" width="4" height="22" fill="#636e72" opacity="0.7"/>
  <circle cx="212" cy="155" r="5" fill="#f9d423" opacity="0.6"/>
  <rect x="370" y="180" width="35" height="130" fill="#ffeaa7" opacity="0.85"/>
  <ellipse cx="387" cy="180" rx="18" ry="12" fill="#dfe6e9" opacity="0.8"/>
  <rect x="385" y="158" width="4" height="22" fill="#636e72" opacity="0.7"/>
  <circle cx="387" cy="155" r="5" fill="#f9d423" opacity="0.6"/>
  <!-- Rose window -->
  <circle cx="300" cy="210" r="25" fill="#fd79a8" opacity="0.4" stroke="#fdcb6e" stroke-width="2"/>
  <circle cx="300" cy="210" r="18" fill="#fd79a8" opacity="0.3" stroke="#fdcb6e" stroke-width="1"/>
  <circle cx="300" cy="210" r="10" fill="#fd79a8" opacity="0.2" stroke="#fdcb6e" stroke-width="1"/>
  <!-- Windows -->
  <rect x="240" y="255" width="15" height="30" fill="#fd79a8" rx="7" opacity="0.4"/>
  <rect x="265" y="255" width="15" height="30" fill="#fd79a8" rx="7" opacity="0.4"/>
  <rect x="320" y="255" width="15" height="30" fill="#fd79a8" rx="7" opacity="0.4"/>
  <rect x="345" y="255" width="15" height="30" fill="#fd79a8" rx="7" opacity="0.4"/>
  <!-- Main entrance -->
  <rect x="275" y="275" width="50" height="35" fill="#636e72" rx="25" opacity="0.6"/>
  <!-- Steps -->
  <rect x="260" y="310" width="80" height="5" fill="#bdc3c7" opacity="0.5"/>
  <rect x="265" y="305" width="70" height="5" fill="#dfe6e9" opacity="0.5"/>
  <!-- Trees -->
  <circle cx="130" cy="280" r="25" fill="#e84393" opacity="0.3"/>
  <rect x="128" y="300" width="5" height="15" fill="#636e72" opacity="0.3"/>
  <circle cx="470" cy="285" r="22" fill="#e84393" opacity="0.3"/>
  <rect x="468" y="302" width="5" height="13" fill="#636e72" opacity="0.3"/>
  <!-- Label -->
  <rect x="150" y="355" width="300" height="30" fill="white" opacity="0.2" rx="15"/>
  <text x="300" y="375" text-anchor="middle" font-size="16" fill="white" font-family="'Segoe UI', sans-serif" font-weight="600">Biserica Sfinții Arhangheli</text>
</svg>