<svg xmlns="http://www.w3.org/2000/svg" viewBox="0 0 1920 800" width="1920" height="800">
  <defs>
    <linearGradient id="sky" x1="0%" y1="0%" x2="0%" y2="100%">
      <stop offset="0%" style="stop-color:#1a1a4e;stop-opacity:1" />
      <stop offset="40%" style="stop-color:#2d3a8c;stop-opacity:1" />
      <stop offset="70%" style="stop-color:#e8756a;stop-opacity:1" />
      <stop offset="100%" style="stop-color:#f4a742;stop-opacity:1" />
    </linearGradient>
    <linearGradient id="water" x1="0%" y1="0%" x2="0%" y2="100%">
      <stop offset="0%" style="stop-color:#2980b9;stop-opacity:0.8" />
      <stop offset="100%" style="stop-color:#1a5276;stop-opacity:0.9" />
    </linearGradient>
  </defs>
  <!-- Sky -->
  <rect width="1920" height="800" fill="url(#sky)"/>
  <!-- Sun -->
  <circle cx="960" cy="380" r="60" fill="#f9d423" opacity="0.9"/>
  <circle cx="960" cy="380" r="80" fill="#f9d423" opacity="0.3"/>
  <!-- Clouds -->
  <ellipse cx="300" cy="150" rx="120" ry="40" fill="white" opacity="0.15"/>
  <ellipse cx="1500" cy="200" rx="150" ry="45" fill="white" opacity="0.12"/>
  <ellipse cx="800" cy="100" rx="100" ry="30" fill="white" opacity="0.1"/>
  <!-- City Skyline -->
  <!-- Buildings left -->
  <rect x="100" y="350" width="60" height="150" fill="#1a1a2e" opacity="0.9"/>
  <rect x="170" y="380" width="50" height="120" fill="#16213e" opacity="0.9"/>
  <rect x="230" y="330" width="70" height="170" fill="#1a1a2e" opacity="0.9"/>
  <rect x="310" y="360" width="55" height="140" fill="#0f3460" opacity="0.9"/>
  <rect x="375" y="340" width="65" height="160" fill="#1a1a2e" opacity="0.9"/>
  <!-- Church dome (left) -->
  <rect x="460" y="370" width="80" height="130" fill="#16213e" opacity="0.9"/>
  <ellipse cx="500" cy="370" rx="40" ry="25" fill="#16213e" opacity="0.9"/>
  <rect x="496" y="330" width="8" height="40" fill="#16213e"/>
  <circle cx="500" cy="328" r="6" fill="#f4a742" opacity="0.7"/>
  <!-- Clock Tower (center-left) -->
  <rect x="580" y="280" width="50" height="220" fill="#1a1a2e" opacity="0.95"/>
  <rect x="575" y="270" width="60" height="15" fill="#16213e"/>
  <polygon points="580,270 630,270 605,240" fill="#1a1a2e"/>
  <circle cx="605" cy="310" r="15" fill="#f9d423" opacity="0.5"/>
  <!-- Center buildings -->
  <rect x="660" y="350" width="80" height="150" fill="#16213e" opacity="0.9"/>
  <rect x="750" y="370" width="60" height="130" fill="#1a1a2e" opacity="0.9"/>
  <rect x="820" y="340" width="90" height="160" fill="#0f3460" opacity="0.9"/>
  <!-- Water Tower (center) -->
  <rect x="940" y="300" width="40" height="200" fill="#1a1a2e" opacity="0.95"/>
  <rect x="925" y="290" width="70" height="20" fill="#16213e"/>
  <rect x="930" y="270" width="60" height="25" fill="#1a1a2e"/>
  <ellipse cx="960" cy="270" rx="35" ry="12" fill="#16213e"/>
  <!-- Right buildings -->
  <rect x="1020" y="360" width="70" height="140" fill="#16213e" opacity="0.9"/>
  <rect x="1100" y="380" width="55" height="120" fill="#1a1a2e" opacity="0.9"/>
  <rect x="1165" y="350" width="80" height="150" fill="#0f3460" opacity="0.9"/>
  <!-- Mill (right) -->
  <rect x="1270" y="320" width="100" height="180" fill="#1a1a2e" opacity="0.95"/>
  <rect x="1265" y="310" width="110" height="15" fill="#16213e"/>
  <rect x="1290" y="280" width="60" height="35" fill="#1a1a2e"/>
  <!-- More right buildings -->
  <rect x="1400" y="370" width="60" height="130" fill="#16213e" opacity="0.9"/>
  <rect x="1470" y="350" width="75" height="150" fill="#1a1a2e" opacity="0.9"/>
  <rect x="1555" y="380" width="55" height="120" fill="#0f3460" opacity="0.9"/>
  <rect x="1620" y="360" width="70" height="140" fill="#1a1a2e" opacity="0.9"/>
  <rect x="1700" y="370" width="60" height="130" fill="#16213e" opacity="0.9"/>
  <rect x="1770" y="390" width="80" height="110" fill="#1a1a2e" opacity="0.9"/>
  <!-- Faleza (promenade) line -->
  <rect x="0" y="495" width="1920" height="8" fill="#34495e" opacity="0.7"/>
  <!-- Dunărea (Danube) -->
  <rect x="0" y="500" width="1920" height="300" fill="url(#water)"/>
  <!-- Water reflections -->
  <rect x="200" y="530" width="120" height="2" fill="white" opacity="0.15"/>
  <rect x="500" y="560" width="80" height="2" fill="white" opacity="0.12"/>
  <rect x="800" y="540" width="150" height="2" fill="white" opacity="0.1"/>
  <rect x="1100" y="570" width="100" height="2" fill="white" opacity="0.13"/>
  <rect x="1400" y="550" width="130" height="2" fill="white" opacity="0.11"/>
  <rect x="300" y="600" width="90" height="2" fill="white" opacity="0.08"/>
  <rect x="700" y="620" width="110" height="2" fill="white" opacity="0.09"/>
  <rect x="1200" y="610" width="140" height="2" fill="white" opacity="0.07"/>
  <!-- Sun reflection on water -->
  <rect x="940" y="510" width="40" height="80" fill="#f9d423" opacity="0.1" rx="20"/>
  <rect x="950" y="520" width="20" height="60" fill="#f9d423" opacity="0.15" rx="10"/>
  <!-- Stars -->
  <circle cx="200" cy="50" r="2" fill="white" opacity="0.6"/>
  <circle cx="400" cy="80" r="1.5" fill="white" opacity="0.5"/>
  <circle cx="600" cy="30" r="2" fill="white" opacity="0.4"/>
  <circle cx="1300" cy="60" r="1.5" fill="white" opacity="0.5"/>
  <circle cx="1600" cy="40" r="2" fill="white" opacity="0.6"/>
  <circle cx="1700" cy="90" r="1.5" fill="white" opacity="0.4"/>
</svg>