<svg xmlns="http://www.w3.org/2000/svg" viewBox="0 0 600 400" width="600" height="400">
  <defs>
    <linearGradient id="bg3" x1="0%" y1="0%" x2="100%" y2="100%">
      <stop offset="0%" style="stop-color:#fdcb6e;stop-opacity:1" />
      <stop offset="100%" style="stop-color:#e17055;stop-opacity:1" />
    </linearGradient>
  </defs>
  <rect width="600" height="400" fill="url(#bg3)"/>
  <!-- Ground -->
  <rect x="0" y="310" width="600" height="90" fill="#636e72" opacity="0.2"/>
  <!-- Mill Building Main -->
  <rect x="150" y="120" width="300" height="190" fill="#ffeaa7" opacity="0.9" rx="3"/>
  <rect x="145" y="115" width="310" height="10" fill="#fdcb6e" opacity="0.8"/>
  <!-- Roof -->
  <polygon points="140,115 460,115 430,75 170,75" fill="#d63031" opacity="0.7"/>
  <rect x="165" y="70" width="270" height="8" fill="#c0392b" opacity="0.6"/>
  <!-- Chimneys -->
  <rect x="220" y="40" width="20" height="35" fill="#636e72" opacity="0.7"/>
  <rect x="360" y="45" width="18" height="30" fill="#636e72" opacity="0.7"/>
  <!-- Windows - Row 1 -->
  <rect x="180" y="140" width="25" height="35" fill="#e17055" rx="3" opacity="0.5"/>
  <rect x="225" y="140" width="25" height="35" fill="#e17055" rx="3" opacity="0.5"/>
  <rect x="270" y="140" width="25" height="35" fill="#e17055" rx="3" opacity="0.5"/>
  <rect x="315" y="140" width="25" height="35" fill="#e17055" rx="3" opacity="0.5"/>
  <rect x="360" y="140" width="25" height="35" fill="#e17055" rx="3" opacity="0.5"/>
  <rect x="405" y="140" width="25" height="35" fill="#e17055" rx="3" opacity="0.5"/>
  <!-- Windows - Row 2 -->
  <rect x="180" y="200" width="25" height="35" fill="#e17055" rx="3" opacity="0.5"/>
  <rect x="225" y="200" width="25" height="35" fill="#e17055" rx="3" opacity="0.5"/>
  <rect x="270" y="200" width="25" height="35" fill="#e17055" rx="3" opacity="0.5"/>
  <rect x="315" y="200" width="25" height="35" fill="#e17055" rx="3" opacity="0.5"/>
  <rect x="360" y="200" width="25" height="35" fill="#e17055" rx="3" opacity="0.5"/>
  <rect x="405" y="200" width="25" height="35" fill="#e17055" rx="3" opacity="0.5"/>
  <!-- Windows - Row 3 -->
  <rect x="180" y="260" width="25" height="35" fill="#e17055" rx="3" opacity="0.5"/>
  <rect x="225" y="260" width="25" height="35" fill="#e17055" rx="3" opacity="0.5"/>
  <rect x="270" y="260" width="25" height="35" fill="#e17055" rx="3" opacity="0.5"/>
  <rect x="315" y="260" width="25" height="35" fill="#e17055" rx="3" opacity="0.5"/>
  <rect x="360" y="260" width="25" height="35" fill="#e17055" rx="3" opacity="0.5"/>
  <rect x="405" y="260" width="25" height="35" fill="#e17055" rx="3" opacity="0.5"/>
  <!-- Large Door -->
  <rect x="270" y="275" width="60" height="35" fill="#636e72" rx="3" opacity="0.6"/>
  <!-- Side wing -->
  <rect x="450" y="180" width="80" height="130" fill="#ffeaa7" opacity="0.7"/>
  <rect x="460" y="200" width="20" height="25" fill="#e17055" rx="3" opacity="0.5"/>
  <rect x="500" y="200" width="20" height="25" fill="#e17055" rx="3" opacity="0.5"/>
  <rect x="460" y="250" width="20" height="25" fill="#e17055" rx="3" opacity="0.5"/>
  <rect x="500" y="250" width="20" height="25" fill="#e17055" rx="3" opacity="0.5"/>
  <!-- Label -->
  <rect x="150" y="355" width="300" height="30" fill="white" opacity="0.2" rx="15"/>
  <text x="300" y="375" text-anchor="middle" font-size="16" fill="white" font-family="'Segoe UI', sans-serif" font-weight="600">Moara Violatos - 1898</text>
</svg>