<svg xmlns="http://www.w3.org/2000/svg" viewBox="0 0 1920 700" width="1920" height="700">
  <defs>
    <linearGradient id="skyGrad" x1="0%" y1="0%" x2="0%" y2="100%">
      <stop offset="0%" style="stop-color:#87CEEB;stop-opacity:1" />
      <stop offset="50%" style="stop-color:#b8dff0;stop-opacity:1" />
      <stop offset="100%" style="stop-color:#dceef7;stop-opacity:1" />
    </linearGradient>
    <linearGradient id="roadGrad" x1="0%" y1="0%" x2="0%" y2="100%">
      <stop offset="0%" style="stop-color:#9e9e9e;stop-opacity:1" />
      <stop offset="100%" style="stop-color:#757575;stop-opacity:1" />
    </linearGradient>
    <linearGradient id="sidewalkGrad" x1="0%" y1="0%" x2="0%" y2="100%">
      <stop offset="0%" style="stop-color:#e0d6c8;stop-opacity:1" />
      <stop offset="100%" style="stop-color:#c9bfb1;stop-opacity:1" />
    </linearGradient>
    <linearGradient id="buildWarm1" x1="0%" y1="0%" x2="0%" y2="100%">
      <stop offset="0%" style="stop-color:#f5e6c8;stop-opacity:1" />
      <stop offset="100%" style="stop-color:#e8d4a8;stop-opacity:1" />
    </linearGradient>
    <linearGradient id="buildWarm2" x1="0%" y1="0%" x2="0%" y2="100%">
      <stop offset="0%" style="stop-color:#f0dcc0;stop-opacity:1" />
      <stop offset="100%" style="stop-color:#d4c4a0;stop-opacity:1" />
    </linearGradient>
    <linearGradient id="buildPink" x1="0%" y1="0%" x2="0%" y2="100%">
      <stop offset="0%" style="stop-color:#e8c4b8;stop-opacity:1" />
      <stop offset="100%" style="stop-color:#d4a898;stop-opacity:1" />
    </linearGradient>
    <linearGradient id="buildGray" x1="0%" y1="0%" x2="0%" y2="100%">
      <stop offset="0%" style="stop-color:#d5d0ca;stop-opacity:1" />
      <stop offset="100%" style="stop-color:#bfb8ae;stop-opacity:1" />
    </linearGradient>
    <linearGradient id="buildBlue" x1="0%" y1="0%" x2="0%" y2="100%">
      <stop offset="0%" style="stop-color:#c8d8e8;stop-opacity:1" />
      <stop offset="100%" style="stop-color:#a8bcd0;stop-opacity:1" />
    </linearGradient>
    <linearGradient id="buildOcher" x1="0%" y1="0%" x2="0%" y2="100%">
      <stop offset="0%" style="stop-color:#e8d098;stop-opacity:1" />
      <stop offset="100%" style="stop-color:#d4b878;stop-opacity:1" />
    </linearGradient>
    <linearGradient id="treeGreen1" x1="0%" y1="0%" x2="0%" y2="100%">
      <stop offset="0%" style="stop-color:#5a9e3e;stop-opacity:1" />
      <stop offset="100%" style="stop-color:#3d7a28;stop-opacity:1" />
    </linearGradient>
    <linearGradient id="treeGreen2" x1="0%" y1="0%" x2="0%" y2="100%">
      <stop offset="0%" style="stop-color:#4a8e2e;stop-opacity:1" />
      <stop offset="100%" style="stop-color:#2d6a18;stop-opacity:1" />
    </linearGradient>
    <linearGradient id="roofRed" x1="0%" y1="0%" x2="0%" y2="100%">
      <stop offset="0%" style="stop-color:#b85c4a;stop-opacity:1" />
      <stop offset="100%" style="stop-color:#8c3a2a;stop-opacity:1" />
    </linearGradient>
    <linearGradient id="roofGray" x1="0%" y1="0%" x2="0%" y2="100%">
      <stop offset="0%" style="stop-color:#7a8a8a;stop-opacity:1" />
      <stop offset="100%" style="stop-color:#5a6a6a;stop-opacity:1" />
    </linearGradient>
    <linearGradient id="clockTower" x1="0%" y1="0%" x2="0%" y2="100%">
      <stop offset="0%" style="stop-color:#f5efe5;stop-opacity:1" />
      <stop offset="100%" style="stop-color:#e0d8c8;stop-opacity:1" />
    </linearGradient>
    <linearGradient id="plazaGrad" x1="0%" y1="0%" x2="0%" y2="100%">
      <stop offset="0%" style="stop-color:#d8d0c0;stop-opacity:1" />
      <stop offset="100%" style="stop-color:#c8bfae;stop-opacity:1" />
    </linearGradient>
    <radialGradient id="sunGlow" cx="50%" cy="50%" r="50%">
      <stop offset="0%" style="stop-color:#fff8e0;stop-opacity:0.6" />
      <stop offset="100%" style="stop-color:#fff8e0;stop-opacity:0" />
    </radialGradient>
    <filter id="softShadow" x="-5%" y="-5%" width="110%" height="115%">
      <feDropShadow dx="2" dy="4" stdDeviation="3" flood-color="#00000030"/>
    </filter>
  </defs>

  <!-- Sky -->
  <rect width="1920" height="700" fill="url(#skyGrad)"/>

  <!-- Sun -->
  <circle cx="1650" cy="100" r="80" fill="url(#sunGlow)"/>
  <circle cx="1650" cy="100" r="35" fill="#ffe580" opacity="0.9"/>

  <!-- Decorative clouds -->
  <g opacity="0.6">
    <ellipse cx="300" cy="80" rx="90" ry="28" fill="white"/>
    <ellipse cx="250" cy="75" rx="60" ry="22" fill="white"/>
    <ellipse cx="360" cy="78" rx="55" ry="20" fill="white"/>
  </g>
  <g opacity="0.4">
    <ellipse cx="1100" cy="60" rx="110" ry="30" fill="white"/>
    <ellipse cx="1040" cy="55" rx="70" ry="24" fill="white"/>
    <ellipse cx="1170" cy="58" rx="65" ry="22" fill="white"/>
  </g>
  <g opacity="0.3">
    <ellipse cx="700" cy="110" rx="70" ry="20" fill="white"/>
    <ellipse cx="660" cy="107" rx="45" ry="16" fill="white"/>
  </g>

  <!-- === FAR BACKGROUND BUILDINGS (skyline) === -->
  <g opacity="0.35">
    <rect x="0" y="200" width="1920" height="20" fill="#c0bab0"/>
    <rect x="50" y="180" width="40" height="40" fill="#b8b0a5"/>
    <rect x="150" y="170" width="50" height="50" fill="#b0a898"/>
    <rect x="280" y="185" width="35" height="35" fill="#b8b0a5"/>
    <rect x="400" y="175" width="45" height="45" fill="#b0a898"/>
    <rect x="550" y="180" width="40" height="40" fill="#b8b0a5"/>
    <rect x="680" y="170" width="50" height="50" fill="#b0a898"/>
    <rect x="1200" y="175" width="45" height="45" fill="#b0a898"/>
    <rect x="1350" y="185" width="35" height="35" fill="#b8b0a5"/>
    <rect x="1500" y="170" width="50" height="50" fill="#b0a898"/>
    <rect x="1650" y="180" width="40" height="40" fill="#b8b0a5"/>
    <rect x="1780" y="175" width="45" height="45" fill="#b0a898"/>
  </g>

  <!-- === MAIN BUILDING ROW - LEFT SIDE === -->

  <!-- Building 1 - Far left, neoclassical style -->
  <g filter="url(#softShadow)">
    <rect x="0" y="250" width="140" height="230" fill="url(#buildWarm1)"/>
    <rect x="0" y="240" width="140" height="15" fill="#d4c4a0"/>
    <rect x="-5" y="237" width="150" height="6" fill="#c8b890"/>
    <!-- Windows -->
    <rect x="15" y="270" width="22" height="35" rx="11" fill="#6a8aaa" opacity="0.7"/>
    <rect x="50" y="270" width="22" height="35" rx="11" fill="#6a8aaa" opacity="0.7"/>
    <rect x="85" y="270" width="22" height="35" rx="11" fill="#6a8aaa" opacity="0.7"/>
    <rect x="115" y="270" width="22" height="35" rx="11" fill="#6a8aaa" opacity="0.7"/>
    <rect x="15" y="330" width="22" height="35" rx="11" fill="#6a8aaa" opacity="0.7"/>
    <rect x="50" y="330" width="22" height="35" rx="11" fill="#6a8aaa" opacity="0.7"/>
    <rect x="85" y="330" width="22" height="35" rx="11" fill="#6a8aaa" opacity="0.7"/>
    <rect x="115" y="330" width="22" height="35" rx="11" fill="#6a8aaa" opacity="0.7"/>
    <rect x="15" y="390" width="22" height="40" fill="#6a8aaa" opacity="0.7"/>
    <rect x="50" y="390" width="22" height="40" fill="#6a8aaa" opacity="0.7"/>
    <rect x="85" y="390" width="22" height="40" fill="#6a8aaa" opacity="0.7"/>
    <rect x="115" y="390" width="22" height="40" fill="#6a8aaa" opacity="0.7"/>
    <!-- Door -->
    <rect x="55" y="440" width="30" height="40" rx="15" fill="#5a4a3a"/>
    <!-- Roof -->
    <polygon points="0,250 70,220 140,250" fill="url(#roofRed)"/>
  </g>

  <!-- Building 2 - Tall narrow, pink/salmon -->
  <g filter="url(#softShadow)">
    <rect x="145" y="230" width="110" height="250" fill="url(#buildPink)"/>
    <rect x="145" y="222" width="110" height="12" fill="#c89888"/>
    <rect x="140" y="218" width="120" height="6" fill="#b88878"/>
    <!-- Windows -->
    <rect x="160" y="245" width="18" height="30" rx="9" fill="#7090a8" opacity="0.7"/>
    <rect x="190" y="245" width="18" height="30" rx="9" fill="#7090a8" opacity="0.7"/>
    <rect x="220" y="245" width="18" height="30" rx="9" fill="#7090a8" opacity="0.7"/>
    <rect x="160" y="295" width="18" height="30" rx="9" fill="#7090a8" opacity="0.7"/>
    <rect x="190" y="295" width="18" height="30" rx="9" fill="#7090a8" opacity="0.7"/>
    <rect x="220" y="295" width="18" height="30" rx="9" fill="#7090a8" opacity="0.7"/>
    <rect x="160" y="345" width="18" height="30" fill="#7090a8" opacity="0.7"/>
    <rect x="190" y="345" width="18" height="30" fill="#7090a8" opacity="0.7"/>
    <rect x="220" y="345" width="18" height="30" fill="#7090a8" opacity="0.7"/>
    <rect x="160" y="395" width="18" height="35" fill="#7090a8" opacity="0.7"/>
    <rect x="190" y="395" width="18" height="35" fill="#7090a8" opacity="0.7"/>
    <rect x="220" y="395" width="18" height="35" fill="#7090a8" opacity="0.7"/>
    <!-- Door -->
    <rect x="185" y="445" width="28" height="35" rx="14" fill="#5a4a3a"/>
    <!-- Roof ornament -->
    <rect x="185" y="208" width="30" height="14" fill="#c89888"/>
    <polygon points="190,208 215,198 240,208" fill="url(#roofGray)" transform="translate(-15,0)"/>
  </g>

  <!-- Building 3 - Grand palazzo style, ocher -->
  <g filter="url(#softShadow)">
    <rect x="260" y="220" width="160" height="260" fill="url(#buildOcher)"/>
    <rect x="260" y="210" width="160" height="14" fill="#c8a868"/>
    <rect x="255" y="206" width="170" height="6" fill="#b89858"/>
    <!-- Pilasters -->
    <rect x="268" y="220" width="8" height="260" fill="#c8a868" opacity="0.5"/>
    <rect x="318" y="220" width="8" height="260" fill="#c8a868" opacity="0.5"/>
    <rect x="368" y="220" width="8" height="260" fill="#c8a868" opacity="0.5"/>
    <rect x="404" y="220" width="8" height="260" fill="#c8a868" opacity="0.5"/>
    <!-- Windows row 1 -->
    <rect x="282" y="235" width="24" height="38" rx="12" fill="#6a88a0" opacity="0.7"/>
    <rect x="328" y="235" width="24" height="38" rx="12" fill="#6a88a0" opacity="0.7"/>
    <rect x="378" y="235" width="24" height="38" rx="12" fill="#6a88a0" opacity="0.7"/>
    <!-- Windows row 2 -->
    <rect x="282" y="295" width="24" height="38" rx="12" fill="#6a88a0" opacity="0.7"/>
    <rect x="328" y="295" width="24" height="38" rx="12" fill="#6a88a0" opacity="0.7"/>
    <rect x="378" y="295" width="24" height="38" rx="12" fill="#6a88a0" opacity="0.7"/>
    <!-- Windows row 3 -->
    <rect x="282" y="355" width="24" height="38" fill="#6a88a0" opacity="0.7"/>
    <rect x="328" y="355" width="24" height="38" fill="#6a88a0" opacity="0.7"/>
    <rect x="378" y="355" width="24" height="38" fill="#6a88a0" opacity="0.7"/>
    <!-- Ground floor shops -->
    <rect x="275" y="415" width="45" height="55" fill="#5a7a8a" opacity="0.6"/>
    <rect x="340" y="415" width="45" height="55" fill="#5a7a8a" opacity="0.6"/>
    <!-- Awnings -->
    <polygon points="275,415 297,405 320,415" fill="#c44030" opacity="0.7"/>
    <polygon points="340,415 362,405 385,415" fill="#2080a0" opacity="0.7"/>
    <!-- Grand entrance -->
    <rect x="310" y="440" width="28" height="40" rx="14" fill="#4a3a2a"/>
    <!-- Roof balustrade -->
    <rect x="260" y="206" width="160" height="3" fill="#b89858"/>
    <rect x="270" y="200" width="4" height="10" fill="#c8a868"/>
    <rect x="290" y="200" width="4" height="10" fill="#c8a868"/>
    <rect x="310" y="200" width="4" height="10" fill="#c8a868"/>
    <rect x="330" y="200" width="4" height="10" fill="#c8a868"/>
    <rect x="350" y="200" width="4" height="10" fill="#c8a868"/>
    <rect x="370" y="200" width="4" height="10" fill="#c8a868"/>
    <rect x="390" y="200" width="4" height="10" fill="#c8a868"/>
    <rect x="410" y="200" width="4" height="10" fill="#c8a868"/>
  </g>

  <!-- Building 4 - Blue/gray two-story -->
  <g filter="url(#softShadow)">
    <rect x="425" y="260" width="120" height="220" fill="url(#buildBlue)"/>
    <rect x="425" y="252" width="120" height="12" fill="#98aec0"/>
    <!-- Windows -->
    <rect x="440" y="275" width="20" height="32" rx="10" fill="#6a88a0" opacity="0.7"/>
    <rect x="475" y="275" width="20" height="32" rx="10" fill="#6a88a0" opacity="0.7"/>
    <rect x="510" y="275" width="20" height="32" rx="10" fill="#6a88a0" opacity="0.7"/>
    <rect x="440" y="330" width="20" height="32" rx="10" fill="#6a88a0" opacity="0.7"/>
    <rect x="475" y="330" width="20" height="32" rx="10" fill="#6a88a0" opacity="0.7"/>
    <rect x="510" y="330" width="20" height="32" rx="10" fill="#6a88a0" opacity="0.7"/>
    <rect x="440" y="390" width="20" height="35" fill="#6a88a0" opacity="0.7"/>
    <rect x="475" y="390" width="20" height="35" fill="#6a88a0" opacity="0.7"/>
    <rect x="510" y="390" width="20" height="35" fill="#6a88a0" opacity="0.7"/>
    <!-- Door -->
    <rect x="470" y="445" width="28" height="35" rx="14" fill="#4a3a2a"/>
    <!-- Roof -->
    <polygon points="425,260 485,230 545,260" fill="url(#roofRed)"/>
  </g>

  <!-- Building 5 - Narrower, warm cream -->
  <g filter="url(#softShadow)">
    <rect x="550" y="245" width="100" height="235" fill="url(#buildWarm2)"/>
    <rect x="550" y="237" width="100" height="12" fill="#c4b490"/>
    <!-- Decorative cornice -->
    <rect x="545" y="233" width="110" height="6" fill="#b4a480"/>
    <!-- Windows -->
    <rect x="565" y="258" width="18" height="30" rx="9" fill="#6a88a0" opacity="0.7"/>
    <rect x="598" y="258" width="18" height="30" rx="9" fill="#6a88a0" opacity="0.7"/>
    <rect x="628" y="258" width="18" height="30" rx="9" fill="#6a88a0" opacity="0.7"/>
    <rect x="565" y="308" width="18" height="30" rx="9" fill="#6a88a0" opacity="0.7"/>
    <rect x="598" y="308" width="18" height="30" rx="9" fill="#6a88a0" opacity="0.7"/>
    <rect x="628" y="308" width="18" height="30" rx="9" fill="#6a88a0" opacity="0.7"/>
    <rect x="565" y="358" width="18" height="30" fill="#6a88a0" opacity="0.7"/>
    <rect x="598" y="358" width="18" height="30" fill="#6a88a0" opacity="0.7"/>
    <rect x="628" y="358" width="18" height="30" fill="#6a88a0" opacity="0.7"/>
    <!-- Shop front -->
    <rect x="560" y="415" width="35" height="50" fill="#5a7a8a" opacity="0.6"/>
    <rect x="610" y="415" width="35" height="50" fill="#5a7a8a" opacity="0.6"/>
    <polygon points="560,415 577,405 595,415" fill="#30a050" opacity="0.7"/>
    <polygon points="610,415 627,405 645,415" fill="#a04030" opacity="0.7"/>
  </g>

  <!-- === PIATA TRAIAN - CENTRAL AREA === -->

  <!-- Open plaza / Piata Traian ground -->
  <rect x="655" y="440" width="610" height="120" fill="url(#plazaGrad)"/>
  <!-- Plaza paving pattern -->
  <g opacity="0.15">
    <line x1="655" y1="460" x2="1265" y2="460" stroke="#8a7a6a" stroke-width="1"/>
    <line x1="655" y1="480" x2="1265" y2="480" stroke="#8a7a6a" stroke-width="1"/>
    <line x1="655" y1="500" x2="1265" y2="500" stroke="#8a7a6a" stroke-width="1"/>
    <line x1="655" y1="520" x2="1265" y2="520" stroke="#8a7a6a" stroke-width="1"/>
    <line x1="655" y1="540" x2="1265" y2="540" stroke="#8a7a6a" stroke-width="1"/>
    <line x1="700" y1="440" x2="700" y2="560" stroke="#8a7a6a" stroke-width="1"/>
    <line x1="750" y1="440" x2="750" y2="560" stroke="#8a7a6a" stroke-width="1"/>
    <line x1="800" y1="440" x2="800" y2="560" stroke="#8a7a6a" stroke-width="1"/>
    <line x1="850" y1="440" x2="850" y2="560" stroke="#8a7a6a" stroke-width="1"/>
    <line x1="900" y1="440" x2="900" y2="560" stroke="#8a7a6a" stroke-width="1"/>
    <line x1="950" y1="440" x2="950" y2="560" stroke="#8a7a6a" stroke-width="1"/>
    <line x1="1000" y1="440" x2="1000" y2="560" stroke="#8a7a6a" stroke-width="1"/>
    <line x1="1050" y1="440" x2="1050" y2="560" stroke="#8a7a6a" stroke-width="1"/>
    <line x1="1100" y1="440" x2="1100" y2="560" stroke="#8a7a6a" stroke-width="1"/>
    <line x1="1150" y1="440" x2="1150" y2="560" stroke="#8a7a6a" stroke-width="1"/>
    <line x1="1200" y1="440" x2="1200" y2="560" stroke="#8a7a6a" stroke-width="1"/>
    <line x1="1250" y1="440" x2="1250" y2="560" stroke="#8a7a6a" stroke-width="1"/>
  </g>

  <!-- Buildings behind the plaza - left wing of Piata Traian -->
  <g filter="url(#softShadow)">
    <rect x="660" y="220" width="170" height="220" fill="url(#buildWarm1)"/>
    <rect x="660" y="212" width="170" height="12" fill="#d8c8a0"/>
    <rect x="655" y="208" width="180" height="6" fill="#c8b890"/>
    <!-- Pilasters -->
    <rect x="668" y="220" width="6" height="220" fill="#d0c090" opacity="0.4"/>
    <rect x="708" y="220" width="6" height="220" fill="#d0c090" opacity="0.4"/>
    <rect x="748" y="220" width="6" height="220" fill="#d0c090" opacity="0.4"/>
    <rect x="788" y="220" width="6" height="220" fill="#d0c090" opacity="0.4"/>
    <rect x="820" y="220" width="6" height="220" fill="#d0c090" opacity="0.4"/>
    <!-- Windows row 1 - arched -->
    <rect x="676" y="235" width="22" height="36" rx="11" fill="#5a7898" opacity="0.7"/>
    <rect x="716" y="235" width="22" height="36" rx="11" fill="#5a7898" opacity="0.7"/>
    <rect x="756" y="235" width="22" height="36" rx="11" fill="#5a7898" opacity="0.7"/>
    <rect x="796" y="235" width="22" height="36" rx="11" fill="#5a7898" opacity="0.7"/>
    <!-- Windows row 2 -->
    <rect x="676" y="295" width="22" height="36" rx="11" fill="#5a7898" opacity="0.7"/>
    <rect x="716" y="295" width="22" height="36" rx="11" fill="#5a7898" opacity="0.7"/>
    <rect x="756" y="295" width="22" height="36" rx="11" fill="#5a7898" opacity="0.7"/>
    <rect x="796" y="295" width="22" height="36" rx="11" fill="#5a7898" opacity="0.7"/>
    <!-- Ground floor arcades -->
    <rect x="670" y="370" width="30" height="60" rx="15" fill="#4a3a2a" opacity="0.6"/>
    <rect x="712" y="370" width="30" height="60" rx="15" fill="#4a3a2a" opacity="0.6"/>
    <rect x="754" y="370" width="30" height="60" rx="15" fill="#4a3a2a" opacity="0.6"/>
    <rect x="796" y="370" width="30" height="60" rx="15" fill="#4a3a2a" opacity="0.6"/>
    <!-- Balustrade on top -->
    <rect x="660" y="205" width="170" height="3" fill="#b8a878"/>
    <rect x="668" y="198" width="4" height="10" fill="#c8b890"/>
    <rect x="688" y="198" width="4" height="10" fill="#c8b890"/>
    <rect x="708" y="198" width="4" height="10" fill="#c8b890"/>
    <rect x="728" y="198" width="4" height="10" fill="#c8b890"/>
    <rect x="748" y="198" width="4" height="10" fill="#c8b890"/>
    <rect x="768" y="198" width="4" height="10" fill="#c8b890"/>
    <rect x="788" y="198" width="4" height="10" fill="#c8b890"/>
    <rect x="808" y="198" width="4" height="10" fill="#c8b890"/>
    <rect x="822" y="198" width="4" height="10" fill="#c8b890"/>
  </g>

  <!-- === THE CLOCK TOWER - CEASUL DIN CENTRU (center of Piata Traian) === -->
  <g filter="url(#softShadow)">
    <!-- Base pedestal -->
    <rect x="920" y="380" width="80" height="60" fill="#e0d8c8"/>
    <rect x="915" y="375" width="90" height="8" fill="#c8bfae"/>
    <!-- Tower shaft -->
    <rect x="935" y="200" width="50" height="180" fill="url(#clockTower)"/>
    <!-- Tower ornamental bands -->
    <rect x="930" y="310" width="60" height="5" fill="#c8bfae"/>
    <rect x="930" y="250" width="60" height="5" fill="#c8bfae"/>
    <!-- Clock face -->
    <circle cx="960" cy="230" r="22" fill="#f8f4e8" stroke="#8a7a60" stroke-width="2"/>
    <circle cx="960" cy="230" r="18" fill="white" stroke="#a08a60" stroke-width="1"/>
    <!-- Clock numbers (simplified as dots) -->
    <circle cx="960" cy="214" r="2" fill="#4a3a2a"/>
    <circle cx="976" cy="230" r="2" fill="#4a3a2a"/>
    <circle cx="960" cy="246" r="2" fill="#4a3a2a"/>
    <circle cx="944" cy="230" r="2" fill="#4a3a2a"/>
    <!-- Clock hands -->
    <line x1="960" y1="230" x2="960" y2="216" stroke="#2a1a0a" stroke-width="2"/>
    <line x1="960" y1="230" x2="970" y2="225" stroke="#2a1a0a" stroke-width="1.5"/>
    <circle cx="960" cy="230" r="2" fill="#2a1a0a"/>
    <!-- Tower top - decorative crown -->
    <rect x="930" y="193" width="60" height="10" fill="#c8bfae"/>
    <polygon points="940,193 960,165 980,193" fill="url(#roofGray)"/>
    <!-- Spire -->
    <rect x="957" y="150" width="6" height="18" fill="#8a8a7a"/>
    <circle cx="960" cy="148" r="5" fill="#d4a030"/>
    <!-- Tower windows -->
    <rect x="948" y="270" width="10" height="20" rx="5" fill="#5a7898" opacity="0.6"/>
    <rect x="963" y="270" width="10" height="20" rx="5" fill="#5a7898" opacity="0.6"/>
    <rect x="948" y="320" width="10" height="20" rx="5" fill="#5a7898" opacity="0.6"/>
    <rect x="963" y="320" width="10" height="20" rx="5" fill="#5a7898" opacity="0.6"/>
    <rect x="948" y="360" width="10" height="15" fill="#5a7898" opacity="0.6"/>
    <rect x="963" y="360" width="10" height="15" fill="#5a7898" opacity="0.6"/>
  </g>

  <!-- Buildings behind the plaza - right wing of Piata Traian -->
  <g filter="url(#softShadow)">
    <rect x="1090" y="225" width="175" height="215" fill="url(#buildWarm2)"/>
    <rect x="1090" y="217" width="175" height="12" fill="#c4b490"/>
    <rect x="1085" y="213" width="185" height="6" fill="#b4a480"/>
    <!-- Pilasters -->
    <rect x="1098" y="225" width="6" height="215" fill="#c4b490" opacity="0.4"/>
    <rect x="1138" y="225" width="6" height="215" fill="#c4b490" opacity="0.4"/>
    <rect x="1178" y="225" width="6" height="215" fill="#c4b490" opacity="0.4"/>
    <rect x="1218" y="225" width="6" height="215" fill="#c4b490" opacity="0.4"/>
    <rect x="1256" y="225" width="6" height="215" fill="#c4b490" opacity="0.4"/>
    <!-- Windows row 1 -->
    <rect x="1108" y="240" width="22" height="36" rx="11" fill="#5a7898" opacity="0.7"/>
    <rect x="1148" y="240" width="22" height="36" rx="11" fill="#5a7898" opacity="0.7"/>
    <rect x="1188" y="240" width="22" height="36" rx="11" fill="#5a7898" opacity="0.7"/>
    <rect x="1228" y="240" width="22" height="36" rx="11" fill="#5a7898" opacity="0.7"/>
    <!-- Windows row 2 -->
    <rect x="1108" y="300" width="22" height="36" rx="11" fill="#5a7898" opacity="0.7"/>
    <rect x="1148" y="300" width="22" height="36" rx="11" fill="#5a7898" opacity="0.7"/>
    <rect x="1188" y="300" width="22" height="36" rx="11" fill="#5a7898" opacity="0.7"/>
    <rect x="1228" y="300" width="22" height="36" rx="11" fill="#5a7898" opacity="0.7"/>
    <!-- Ground floor arcades -->
    <rect x="1102" y="370" width="30" height="60" rx="15" fill="#4a3a2a" opacity="0.6"/>
    <rect x="1144" y="370" width="30" height="60" rx="15" fill="#4a3a2a" opacity="0.6"/>
    <rect x="1186" y="370" width="30" height="60" rx="15" fill="#4a3a2a" opacity="0.6"/>
    <rect x="1228" y="370" width="30" height="60" rx="15" fill="#4a3a2a" opacity="0.6"/>
    <!-- Balustrade -->
    <rect x="1090" y="210" width="175" height="3" fill="#a49470"/>
    <rect x="1098" y="203" width="4" height="10" fill="#b4a480"/>
    <rect x="1118" y="203" width="4" height="10" fill="#b4a480"/>
    <rect x="1138" y="203" width="4" height="10" fill="#b4a480"/>
    <rect x="1158" y="203" width="4" height="10" fill="#b4a480"/>
    <rect x="1178" y="203" width="4" height="10" fill="#b4a480"/>
    <rect x="1198" y="203" width="4" height="10" fill="#b4a480"/>
    <rect x="1218" y="203" width="4" height="10" fill="#b4a480"/>
    <rect x="1238" y="203" width="4" height="10" fill="#b4a480"/>
    <rect x="1258" y="203" width="4" height="10" fill="#b4a480"/>
  </g>

  <!-- === MAIN BUILDING ROW - RIGHT SIDE === -->

  <!-- Building 6 - Right of plaza, gray-blue -->
  <g filter="url(#softShadow)">
    <rect x="1270" y="240" width="130" height="240" fill="url(#buildGray)"/>
    <rect x="1270" y="232" width="130" height="12" fill="#afa8a0"/>
    <rect x="1265" y="228" width="140" height="6" fill="#9f9890"/>
    <!-- Windows -->
    <rect x="1288" y="255" width="20" height="34" rx="10" fill="#6a88a0" opacity="0.7"/>
    <rect x="1322" y="255" width="20" height="34" rx="10" fill="#6a88a0" opacity="0.7"/>
    <rect x="1358" y="255" width="20" height="34" rx="10" fill="#6a88a0" opacity="0.7"/>
    <rect x="1288" y="310" width="20" height="34" rx="10" fill="#6a88a0" opacity="0.7"/>
    <rect x="1322" y="310" width="20" height="34" rx="10" fill="#6a88a0" opacity="0.7"/>
    <rect x="1358" y="310" width="20" height="34" rx="10" fill="#6a88a0" opacity="0.7"/>
    <rect x="1288" y="370" width="20" height="34" fill="#6a88a0" opacity="0.7"/>
    <rect x="1322" y="370" width="20" height="34" fill="#6a88a0" opacity="0.7"/>
    <rect x="1358" y="370" width="20" height="34" fill="#6a88a0" opacity="0.7"/>
    <!-- Shop awning -->
    <rect x="1280" y="430" width="50" height="40" fill="#5a7a8a" opacity="0.6"/>
    <rect x="1345" y="430" width="45" height="40" fill="#5a7a8a" opacity="0.6"/>
    <polygon points="1280,430 1305,418 1330,430" fill="#c04030" opacity="0.7"/>
    <polygon points="1345,430 1367,418 1390,430" fill="#2070a0" opacity="0.7"/>
    <!-- Roof -->
    <polygon points="1270,240 1335,210 1400,240" fill="url(#roofGray)"/>
  </g>

  <!-- Building 7 - Ornate, warm ocher -->
  <g filter="url(#softShadow)">
    <rect x="1405" y="235" width="140" height="245" fill="url(#buildOcher)"/>
    <rect x="1405" y="227" width="140" height="12" fill="#c8a868"/>
    <rect x="1400" y="223" width="150" height="6" fill="#b89858"/>
    <!-- Ornamental pilasters -->
    <rect x="1412" y="235" width="6" height="245" fill="#c8a868" opacity="0.4"/>
    <rect x="1445" y="235" width="6" height="245" fill="#c8a868" opacity="0.4"/>
    <rect x="1478" y="235" width="6" height="245" fill="#c8a868" opacity="0.4"/>
    <rect x="1508" y="235" width="6" height="245" fill="#c8a868" opacity="0.4"/>
    <rect x="1538" y="235" width="6" height="245" fill="#c8a868" opacity="0.4"/>
    <!-- Windows row 1 -->
    <rect x="1420" y="248" width="20" height="34" rx="10" fill="#6a88a0" opacity="0.7"/>
    <rect x="1455" y="248" width="20" height="34" rx="10" fill="#6a88a0" opacity="0.7"/>
    <rect x="1490" y="248" width="20" height="34" rx="10" fill="#6a88a0" opacity="0.7"/>
    <rect x="1520" y="248" width="20" height="34" rx="10" fill="#6a88a0" opacity="0.7"/>
    <!-- Windows row 2 -->
    <rect x="1420" y="305" width="20" height="34" rx="10" fill="#6a88a0" opacity="0.7"/>
    <rect x="1455" y="305" width="20" height="34" rx="10" fill="#6a88a0" opacity="0.7"/>
    <rect x="1490" y="305" width="20" height="34" rx="10" fill="#6a88a0" opacity="0.7"/>
    <rect x="1520" y="305" width="20" height="34" rx="10" fill="#6a88a0" opacity="0.7"/>
    <!-- Windows row 3 -->
    <rect x="1420" y="365" width="20" height="34" fill="#6a88a0" opacity="0.7"/>
    <rect x="1455" y="365" width="20" height="34" fill="#6a88a0" opacity="0.7"/>
    <rect x="1490" y="365" width="20" height="34" fill="#6a88a0" opacity="0.7"/>
    <rect x="1520" y="365" width="20" height="34" fill="#6a88a0" opacity="0.7"/>
    <!-- Grand door -->
    <rect x="1458" y="435" width="34" height="45" rx="17" fill="#4a3a2a"/>
    <!-- Balustrade -->
    <rect x="1405" y="220" width="140" height="3" fill="#b89858"/>
    <rect x="1412" y="213" width="4" height="10" fill="#c8a868"/>
    <rect x="1432" y="213" width="4" height="10" fill="#c8a868"/>
    <rect x="1452" y="213" width="4" height="10" fill="#c8a868"/>
    <rect x="1472" y="213" width="4" height="10" fill="#c8a868"/>
    <rect x="1492" y="213" width="4" height="10" fill="#c8a868"/>
    <rect x="1512" y="213" width="4" height="10" fill="#c8a868"/>
    <rect x="1532" y="213" width="4" height="10" fill="#c8a868"/>
  </g>

  <!-- Building 8 - Far right, pink -->
  <g filter="url(#softShadow)">
    <rect x="1550" y="250" width="120" height="230" fill="url(#buildPink)"/>
    <rect x="1550" y="242" width="120" height="12" fill="#c89888"/>
    <!-- Windows -->
    <rect x="1565" y="265" width="18" height="30" rx="9" fill="#7090a8" opacity="0.7"/>
    <rect x="1598" y="265" width="18" height="30" rx="9" fill="#7090a8" opacity="0.7"/>
    <rect x="1631" y="265" width="18" height="30" rx="9" fill="#7090a8" opacity="0.7"/>
    <rect x="1565" y="320" width="18" height="30" rx="9" fill="#7090a8" opacity="0.7"/>
    <rect x="1598" y="320" width="18" height="30" rx="9" fill="#7090a8" opacity="0.7"/>
    <rect x="1631" y="320" width="18" height="30" rx="9" fill="#7090a8" opacity="0.7"/>
    <rect x="1565" y="375" width="18" height="30" fill="#7090a8" opacity="0.7"/>
    <rect x="1598" y="375" width="18" height="30" fill="#7090a8" opacity="0.7"/>
    <rect x="1631" y="375" width="18" height="30" fill="#7090a8" opacity="0.7"/>
    <!-- Door -->
    <rect x="1595" y="445" width="26" height="35" rx="13" fill="#5a4a3a"/>
    <!-- Roof -->
    <polygon points="1550,250 1610,222 1670,250" fill="url(#roofRed)"/>
  </g>

  <!-- Building 9 - Far right warm -->
  <g filter="url(#softShadow)">
    <rect x="1675" y="260" width="130" height="220" fill="url(#buildWarm1)"/>
    <rect x="1675" y="252" width="130" height="12" fill="#d4c4a0"/>
    <!-- Windows -->
    <rect x="1693" y="275" width="18" height="30" rx="9" fill="#6a88a0" opacity="0.7"/>
    <rect x="1725" y="275" width="18" height="30" rx="9" fill="#6a88a0" opacity="0.7"/>
    <rect x="1757" y="275" width="18" height="30" rx="9" fill="#6a88a0" opacity="0.7"/>
    <rect x="1785" y="275" width="18" height="30" rx="9" fill="#6a88a0" opacity="0.7"/>
    <rect x="1693" y="330" width="18" height="30" rx="9" fill="#6a88a0" opacity="0.7"/>
    <rect x="1725" y="330" width="18" height="30" rx="9" fill="#6a88a0" opacity="0.7"/>
    <rect x="1757" y="330" width="18" height="30" rx="9" fill="#6a88a0" opacity="0.7"/>
    <rect x="1785" y="330" width="18" height="30" rx="9" fill="#6a88a0" opacity="0.7"/>
    <rect x="1693" y="390" width="18" height="35" fill="#6a88a0" opacity="0.7"/>
    <rect x="1725" y="390" width="18" height="35" fill="#6a88a0" opacity="0.7"/>
    <rect x="1757" y="390" width="18" height="35" fill="#6a88a0" opacity="0.7"/>
    <rect x="1785" y="390" width="18" height="35" fill="#6a88a0" opacity="0.7"/>
    <!-- Door -->
    <rect x="1728" y="445" width="28" height="35" rx="14" fill="#4a3a2a"/>
  </g>

  <!-- Building 10 - partial far right -->
  <g filter="url(#softShadow)">
    <rect x="1810" y="255" width="120" height="225" fill="url(#buildBlue)"/>
    <rect x="1810" y="247" width="120" height="12" fill="#98aec0"/>
    <rect x="1825" y="270" width="18" height="30" rx="9" fill="#6a88a0" opacity="0.7"/>
    <rect x="1858" y="270" width="18" height="30" rx="9" fill="#6a88a0" opacity="0.7"/>
    <rect x="1891" y="270" width="18" height="30" rx="9" fill="#6a88a0" opacity="0.7"/>
    <rect x="1825" y="325" width="18" height="30" rx="9" fill="#6a88a0" opacity="0.7"/>
    <rect x="1858" y="325" width="18" height="30" rx="9" fill="#6a88a0" opacity="0.7"/>
    <rect x="1891" y="325" width="18" height="30" rx="9" fill="#6a88a0" opacity="0.7"/>
    <rect x="1825" y="380" width="18" height="35" fill="#6a88a0" opacity="0.7"/>
    <rect x="1858" y="380" width="18" height="35" fill="#6a88a0" opacity="0.7"/>
    <rect x="1891" y="380" width="18" height="35" fill="#6a88a0" opacity="0.7"/>
  </g>

  <!-- === SIDEWALK / ROAD === -->
  <rect x="0" y="480" width="655" height="15" fill="url(#sidewalkGrad)"/>
  <rect x="1265" y="480" width="655" height="15" fill="url(#sidewalkGrad)"/>
  <rect x="0" y="495" width="1920" height="55" fill="url(#roadGrad)"/>
  <!-- Road markings -->
  <g opacity="0.4">
    <rect x="100" y="520" width="50" height="3" fill="white"/>
    <rect x="220" y="520" width="50" height="3" fill="white"/>
    <rect x="340" y="520" width="50" height="3" fill="white"/>
    <rect x="460" y="520" width="50" height="3" fill="white"/>
    <rect x="580" y="520" width="50" height="3" fill="white"/>
    <rect x="700" y="520" width="50" height="3" fill="white"/>
    <rect x="820" y="520" width="50" height="3" fill="white"/>
    <rect x="940" y="520" width="50" height="3" fill="white"/>
    <rect x="1060" y="520" width="50" height="3" fill="white"/>
    <rect x="1180" y="520" width="50" height="3" fill="white"/>
    <rect x="1300" y="520" width="50" height="3" fill="white"/>
    <rect x="1420" y="520" width="50" height="3" fill="white"/>
    <rect x="1540" y="520" width="50" height="3" fill="white"/>
    <rect x="1660" y="520" width="50" height="3" fill="white"/>
    <rect x="1780" y="520" width="50" height="3" fill="white"/>
  </g>

  <!-- Lower sidewalk -->
  <rect x="0" y="550" width="1920" height="15" fill="url(#sidewalkGrad)"/>

  <!-- === TREES === -->
  <!-- Trees along left sidewalk -->
  <g>
    <rect x="88" y="445" width="6" height="35" fill="#6a5040"/>
    <ellipse cx="91" cy="430" rx="22" ry="28" fill="url(#treeGreen1)"/>
    <ellipse cx="81" cy="435" rx="16" ry="20" fill="url(#treeGreen2)"/>
    <ellipse cx="101" cy="438" rx="14" ry="18" fill="url(#treeGreen1)"/>
  </g>
  <g>
    <rect x="228" y="445" width="6" height="35" fill="#6a5040"/>
    <ellipse cx="231" cy="428" rx="24" ry="30" fill="url(#treeGreen2)"/>
    <ellipse cx="221" cy="433" rx="18" ry="22" fill="url(#treeGreen1)"/>
    <ellipse cx="241" cy="436" rx="15" ry="19" fill="url(#treeGreen2)"/>
  </g>
  <g>
    <rect x="498" y="445" width="6" height="35" fill="#6a5040"/>
    <ellipse cx="501" cy="430" rx="22" ry="28" fill="url(#treeGreen1)"/>
    <ellipse cx="491" cy="435" rx="16" ry="20" fill="url(#treeGreen2)"/>
  </g>

  <!-- Trees in the plaza -->
  <g>
    <rect x="868" y="430" width="5" height="30" fill="#6a5040"/>
    <ellipse cx="870" cy="418" rx="18" ry="22" fill="url(#treeGreen1)"/>
    <ellipse cx="862" cy="422" rx="13" ry="16" fill="url(#treeGreen2)"/>
    <ellipse cx="878" cy="420" rx="12" ry="15" fill="url(#treeGreen1)"/>
  </g>
  <g>
    <rect x="1048" y="430" width="5" height="30" fill="#6a5040"/>
    <ellipse cx="1050" cy="418" rx="18" ry="22" fill="url(#treeGreen2)"/>
    <ellipse cx="1042" cy="422" rx="13" ry="16" fill="url(#treeGreen1)"/>
    <ellipse cx="1058" cy="420" rx="12" ry="15" fill="url(#treeGreen2)"/>
  </g>

  <!-- Trees along right sidewalk -->
  <g>
    <rect x="1338" y="445" width="6" height="35" fill="#6a5040"/>
    <ellipse cx="1341" cy="430" rx="22" ry="28" fill="url(#treeGreen1)"/>
    <ellipse cx="1331" cy="435" rx="16" ry="20" fill="url(#treeGreen2)"/>
    <ellipse cx="1351" cy="438" rx="14" ry="18" fill="url(#treeGreen1)"/>
  </g>
  <g>
    <rect x="1608" y="445" width="6" height="35" fill="#6a5040"/>
    <ellipse cx="1611" cy="428" rx="24" ry="30" fill="url(#treeGreen2)"/>
    <ellipse cx="1601" cy="433" rx="18" ry="22" fill="url(#treeGreen1)"/>
    <ellipse cx="1621" cy="436" rx="15" ry="19" fill="url(#treeGreen2)"/>
  </g>
  <g>
    <rect x="1798" y="445" width="6" height="35" fill="#6a5040"/>
    <ellipse cx="1801" cy="430" rx="20" ry="26" fill="url(#treeGreen1)"/>
    <ellipse cx="1811" cy="434" rx="14" ry="18" fill="url(#treeGreen2)"/>
  </g>

  <!-- === FOREGROUND - Park/garden area === -->
  <rect x="0" y="565" width="1920" height="135" fill="#6aaa48"/>
  <!-- Grass texture -->
  <g opacity="0.3">
    <ellipse cx="100" cy="600" rx="60" ry="8" fill="#5a9a38"/>
    <ellipse cx="300" cy="620" rx="80" ry="10" fill="#4a8a28"/>
    <ellipse cx="550" cy="590" rx="70" ry="9" fill="#5a9a38"/>
    <ellipse cx="800" cy="610" rx="90" ry="10" fill="#4a8a28"/>
    <ellipse cx="1050" cy="595" rx="75" ry="8" fill="#5a9a38"/>
    <ellipse cx="1300" cy="615" rx="85" ry="10" fill="#4a8a28"/>
    <ellipse cx="1550" cy="600" rx="65" ry="9" fill="#5a9a38"/>
    <ellipse cx="1750" cy="620" rx="80" ry="10" fill="#4a8a28"/>
  </g>

  <!-- Foreground path -->
  <path d="M0,620 Q480,595 960,615 Q1440,635 1920,610" fill="none" stroke="#c8bfae" stroke-width="20" opacity="0.5"/>

  <!-- Foreground bushes -->
  <ellipse cx="60" cy="650" rx="35" ry="18" fill="#4a8a28"/>
  <ellipse cx="30" cy="655" rx="25" ry="14" fill="#3a7a18"/>
  <ellipse cx="200" cy="670" rx="40" ry="20" fill="#4a8a28"/>
  <ellipse cx="170" cy="675" rx="28" ry="15" fill="#3a7a18"/>
  <ellipse cx="450" cy="660" rx="30" ry="16" fill="#4a8a28"/>
  <ellipse cx="700" cy="665" rx="35" ry="18" fill="#3a7a18"/>
  <ellipse cx="730" cy="670" rx="30" ry="15" fill="#4a8a28"/>
  <ellipse cx="1000" cy="658" rx="38" ry="19" fill="#4a8a28"/>
  <ellipse cx="1250" cy="668" rx="32" ry="16" fill="#3a7a18"/>
  <ellipse cx="1280" cy="672" rx="25" ry="13" fill="#4a8a28"/>
  <ellipse cx="1500" cy="665" rx="36" ry="18" fill="#4a8a28"/>
  <ellipse cx="1700" cy="670" rx="30" ry="16" fill="#3a7a18"/>
  <ellipse cx="1730" cy="675" rx="25" ry="14" fill="#4a8a28"/>
  <ellipse cx="1880" cy="660" rx="35" ry="18" fill="#4a8a28"/>

  <!-- Foreground trees (closer, larger) -->
  <g>
    <rect x="135" y="570" width="8" height="55" fill="#5a4030"/>
    <ellipse cx="139" cy="548" rx="35" ry="40" fill="url(#treeGreen2)"/>
    <ellipse cx="125" cy="555" rx="25" ry="30" fill="url(#treeGreen1)"/>
    <ellipse cx="155" cy="555" rx="22" ry="28" fill="url(#treeGreen2)"/>
  </g>
  <g>
    <rect x="580" y="575" width="8" height="50" fill="#5a4030"/>
    <ellipse cx="584" cy="555" rx="32" ry="36" fill="url(#treeGreen1)"/>
    <ellipse cx="572" cy="560" rx="22" ry="26" fill="url(#treeGreen2)"/>
    <ellipse cx="596" cy="560" rx="20" ry="24" fill="url(#treeGreen1)"/>
  </g>
  <g>
    <rect x="1120" y="572" width="8" height="52" fill="#5a4030"/>
    <ellipse cx="1124" cy="550" rx="34" ry="38" fill="url(#treeGreen2)"/>
    <ellipse cx="1110" cy="558" rx="24" ry="28" fill="url(#treeGreen1)"/>
    <ellipse cx="1140" cy="555" rx="22" ry="26" fill="url(#treeGreen2)"/>
  </g>
  <g>
    <rect x="1750" y="575" width="8" height="50" fill="#5a4030"/>
    <ellipse cx="1754" cy="555" rx="30" ry="34" fill="url(#treeGreen1)"/>
    <ellipse cx="1742" cy="560" rx="20" ry="24" fill="url(#treeGreen2)"/>
    <ellipse cx="1766" cy="558" rx="18" ry="22" fill="url(#treeGreen1)"/>
  </g>

  <!-- === PEOPLE (small silhouettes for life) === -->
  <g opacity="0.6">
    <!-- Person 1 walking left -->
    <ellipse cx="380" cy="468" rx="4" ry="4" fill="#4a3a2a"/>
    <rect x="377" y="472" width="6" height="12" fill="#3a6a8a" rx="2"/>
    <line x1="378" y1="484" x2="375" y2="492" stroke="#4a3a2a" stroke-width="2"/>
    <line x1="383" y1="484" x2="386" y2="492" stroke="#4a3a2a" stroke-width="2"/>

    <!-- Person 2 walking right -->
    <ellipse cx="780" cy="466" rx="4" ry="4" fill="#5a4a3a"/>
    <rect x="777" y="470" width="6" height="12" fill="#a04030" rx="2"/>
    <line x1="778" y1="482" x2="775" y2="490" stroke="#5a4a3a" stroke-width="2"/>
    <line x1="783" y1="482" x2="786" y2="490" stroke="#5a4a3a" stroke-width="2"/>

    <!-- Person 3 -->
    <ellipse cx="1150" cy="467" rx="4" ry="4" fill="#4a3a2a"/>
    <rect x="1147" y="471" width="6" height="12" fill="#2080a0" rx="2"/>
    <line x1="1148" y1="483" x2="1145" y2="491" stroke="#4a3a2a" stroke-width="2"/>
    <line x1="1153" y1="483" x2="1156" y2="491" stroke="#4a3a2a" stroke-width="2"/>

    <!-- Couple walking -->
    <ellipse cx="960" cy="458" rx="4" ry="4" fill="#4a3a2a"/>
    <rect x="957" y="462" width="6" height="12" fill="#30a050" rx="2"/>
    <line x1="958" y1="474" x2="955" y2="482" stroke="#4a3a2a" stroke-width="2"/>
    <line x1="963" y1="474" x2="966" y2="482" stroke="#4a3a2a" stroke-width="2"/>

    <ellipse cx="970" cy="458" rx="4" ry="4" fill="#5a4a3a"/>
    <rect x="967" y="462" width="6" height="12" fill="#c04050" rx="2"/>
    <line x1="968" y1="474" x2="965" y2="482" stroke="#5a4a3a" stroke-width="2"/>
    <line x1="973" y1="474" x2="976" y2="482" stroke="#5a4a3a" stroke-width="2"/>

    <!-- Person on lower sidewalk -->
    <ellipse cx="1450" cy="555" rx="5" ry="5" fill="#4a3a2a"/>
    <rect x="1446" y="560" width="8" height="14" fill="#4060a0" rx="3"/>
    <line x1="1448" y1="574" x2="1444" y2="585" stroke="#4a3a2a" stroke-width="2.5"/>
    <line x1="1454" y1="574" x2="1458" y2="585" stroke="#4a3a2a" stroke-width="2.5"/>

    <!-- Person near path -->
    <ellipse cx="350" cy="608" rx="5" ry="5" fill="#5a4a3a"/>
    <rect x="346" y="613" width="8" height="14" fill="#a06030" rx="3"/>
    <line x1="348" y1="627" x2="344" y2="638" stroke="#5a4a3a" stroke-width="2.5"/>
    <line x1="354" y1="627" x2="358" y2="638" stroke="#5a4a3a" stroke-width="2.5"/>
  </g>

  <!-- === DECORATIVE ELEMENTS === -->
  <!-- Street lamps -->
  <g opacity="0.7">
    <rect x="650" y="445" width="4" height="40" fill="#4a4a4a"/>
    <circle cx="652" cy="442" r="6" fill="#f8e880" opacity="0.5"/>
    <rect x="646" y="438" width="12" height="4" fill="#4a4a4a"/>

    <rect x="1260" y="445" width="4" height="40" fill="#4a4a4a"/>
    <circle cx="1262" cy="442" r="6" fill="#f8e880" opacity="0.5"/>
    <rect x="1256" y="438" width="12" height="4" fill="#4a4a4a"/>
  </g>

  <!-- Benches in plaza -->
  <g opacity="0.5">
    <rect x="880" y="465" width="25" height="3" fill="#6a5040"/>
    <rect x="882" y="468" width="3" height="6" fill="#6a5040"/>
    <rect x="900" y="468" width="3" height="6" fill="#6a5040"/>

    <rect x="1020" y="465" width="25" height="3" fill="#6a5040"/>
    <rect x="1022" y="468" width="3" height="6" fill="#6a5040"/>
    <rect x="1040" y="468" width="3" height="6" fill="#6a5040"/>
  </g>

  <!-- Flower beds in foreground -->
  <g opacity="0.8">
    <circle cx="400" cy="640" r="3" fill="#e04060"/>
    <circle cx="406" cy="637" r="3" fill="#e06080"/>
    <circle cx="412" cy="641" r="3" fill="#e04060"/>
    <circle cx="395" cy="636" r="3" fill="#e06080"/>
    <circle cx="418" cy="638" r="3" fill="#e04060"/>

    <circle cx="900" cy="645" r="3" fill="#f0c020"/>
    <circle cx="906" cy="642" r="3" fill="#f0d040"/>
    <circle cx="912" cy="646" r="3" fill="#f0c020"/>
    <circle cx="895" cy="641" r="3" fill="#f0d040"/>

    <circle cx="1400" cy="642" r="3" fill="#c040e0"/>
    <circle cx="1406" cy="639" r="3" fill="#d060f0"/>
    <circle cx="1412" cy="643" r="3" fill="#c040e0"/>
    <circle cx="1395" cy="638" r="3" fill="#d060f0"/>
    <circle cx="1418" cy="640" r="3" fill="#c040e0"/>
  </g>

  <!-- Birds in the sky -->
  <g opacity="0.4" fill="none" stroke="#4a4a5a" stroke-width="1.5">
    <path d="M500,130 Q505,125 510,130 Q515,125 520,130"/>
    <path d="M530,120 Q534,116 538,120 Q542,116 546,120"/>
    <path d="M1400,90 Q1405,85 1410,90 Q1415,85 1420,90"/>
    <path d="M1430,80 Q1434,76 1438,80 Q1442,76 1446,80"/>
    <path d="M850,70 Q854,66 858,70 Q862,66 866,70"/>
  </g>

  <!-- Label/Title banner at bottom -->
  <rect x="0" y="680" width="1920" height="20" fill="#2c3e50" opacity="0.7"/>
  <text x="960" y="695" text-anchor="middle" fill="white" font-family="Georgia, serif" font-size="13" letter-spacing="3" opacity="0.9">PANORAMA CENTRULUI BRĂILA  ·  PIAȚA TRAIAN  ·  CENTRUL ISTORIC</text>
</svg>