<svg xmlns="http://www.w3.org/2000/svg" viewBox="0 0 600 400" width="600" height="400">
  <defs>
    <linearGradient id="bg4" x1="0%" y1="0%" x2="100%" y2="100%">
      <stop offset="0%" style="stop-color:#a29bfe;stop-opacity:1" />
      <stop offset="100%" style="stop-color:#6c5ce7;stop-opacity:1" />
    </linearGradient>
  </defs>
  <rect width="600" height="400" fill="url(#bg4)"/>
  <!-- Street / Ground -->
  <rect x="0" y="280" width="600" height="120" fill="#636e72" opacity="0.3"/>
  <rect x="180" y="280" width="240" height="120" fill="#b2bec3" opacity="0.15"/>
  <!-- Left Buildings -->
  <rect x="30" y="100" width="120" height="180" fill="#dfe6e9" opacity="0.8" rx="3"/>
  <rect x="25" y="95" width="130" height="8" fill="#b2bec3" opacity="0.7"/>
  <!-- Left building windows -->
  <rect x="45" y="120" width="18" height="25" fill="#a29bfe" rx="2" opacity="0.5"/>
  <rect x="75" y="120" width="18" height="25" fill="#a29bfe" rx="2" opacity="0.5"/>
  <rect x="105" y="120" width="18" height="25" fill="#a29bfe" rx="2" opacity="0.5"/>
  <rect x="45" y="170" width="18" height="25" fill="#a29bfe" rx="2" opacity="0.5"/>
  <rect x="75" y="170" width="18" height="25" fill="#a29bfe" rx="2" opacity="0.5"/>
  <rect x="105" y="170" width="18" height="25" fill="#a29bfe" rx="2" opacity="0.5"/>
  <rect x="45" y="220" width="18" height="25" fill="#a29bfe" rx="2" opacity="0.5"/>
  <rect x="75" y="220" width="18" height="25" fill="#a29bfe" rx="2" opacity="0.5"/>
  <rect x="105" y="220" width="18" height="25" fill="#a29bfe" rx="2" opacity="0.5"/>
  <!-- Shop awning -->
  <rect x="30" y="255" width="120" height="8" fill="#e74c3c" opacity="0.6" rx="2"/>
  <!-- Left building 2 -->
  <rect x="160" y="130" width="100" height="150" fill="#ecf0f1" opacity="0.7" rx="3"/>
  <rect x="170" y="150" width="15" height="22" fill="#a29bfe" rx="2" opacity="0.5"/>
  <rect x="195" y="150" width="15" height="22" fill="#a29bfe" rx="2" opacity="0.5"/>
  <rect x="220" y="150" width="15" height="22" fill="#a29bfe" rx="2" opacity="0.5"/>
  <rect x="170" y="195" width="15" height="22" fill="#a29bfe" rx="2" opacity="0.5"/>
  <rect x="195" y="195" width="15" height="22" fill="#a29bfe" rx="2" opacity="0.5"/>
  <rect x="220" y="195" width="15" height="22" fill="#a29bfe" rx="2" opacity="0.5"/>
  <!-- Right Buildings -->
  <rect x="340" y="120" width="110" height="160" fill="#ecf0f1" opacity="0.7" rx="3"/>
  <rect x="355" y="140" width="15" height="22" fill="#a29bfe" rx="2" opacity="0.5"/>
  <rect x="380" y="140" width="15" height="22" fill="#a29bfe" rx="2" opacity="0.5"/>
  <rect x="405" y="140" width="15" height="22" fill="#a29bfe" rx="2" opacity="0.5"/>
  <rect x="355" y="185" width="15" height="22" fill="#a29bfe" rx="2" opacity="0.5"/>
  <rect x="380" y="185" width="15" height="22" fill="#a29bfe" rx="2" opacity="0.5"/>
  <rect x="405" y="185" width="15" height="22" fill="#a29bfe" rx="2" opacity="0.5"/>
  <rect x="340" y="255" width="110" height="8" fill="#fdcb6e" opacity="0.6" rx="2"/>
  <rect x="460" y="100" width="120" height="180" fill="#dfe6e9" opacity="0.8" rx="3"/>
  <rect x="455" y="95" width="130" height="8" fill="#b2bec3" opacity="0.7"/>
  <rect x="475" y="120" width="18" height="25" fill="#a29bfe" rx="2" opacity="0.5"/>
  <rect x="505" y="120" width="18" height="25" fill="#a29bfe" rx="2" opacity="0.5"/>
  <rect x="535" y="120" width="18" height="25" fill="#a29bfe" rx="2" opacity="0.5"/>
  <rect x="475" y="170" width="18" height="25" fill="#a29bfe" rx="2" opacity="0.5"/>
  <rect x="505" y="170" width="18" height="25" fill="#a29bfe" rx="2" opacity="0.5"/>
  <rect x="535" y="170" width="18" height="25" fill="#a29bfe" rx="2" opacity="0.5"/>
  <!-- Street lamps -->
  <rect x="295" y="230" width="4" height="50" fill="#636e72" opacity="0.6"/>
  <circle cx="297" cy="225" r="8" fill="#f9d423" opacity="0.6"/>
  <circle cx="297" cy="225" r="15" fill="#f9d423" opacity="0.15"/>
  <!-- People silhouettes -->
  <circle cx="220" cy="305" r="6" fill="#2d3436" opacity="0.3"/>
  <rect x="216" y="311" width="8" height="15" fill="#2d3436" rx="2" opacity="0.3"/>
  <circle cx="380" cy="308" r="6" fill="#2d3436" opacity="0.3"/>
  <rect x="376" y="314" width="8" height="15" fill="#2d3436" rx="2" opacity="0.3"/>
  <circle cx="330" cy="310" r="5" fill="#2d3436" opacity="0.25"/>
  <rect x="327" y="315" width="7" height="12" fill="#2d3436" rx="2" opacity="0.25"/>
  <!-- Label -->
  <rect x="175" y="355" width="250" height="30" fill="white" opacity="0.2" rx="15"/>
  <text x="300" y="375" text-anchor="middle" font-size="16" fill="white" font-family="'Segoe UI', sans-serif" font-weight="600">Strada Regală</text>
</svg>