<svg xmlns="http://www.w3.org/2000/svg" viewBox="0 0 600 400" width="600" height="400">
  <defs>
    <linearGradient id="bg2" x1="0%" y1="0%" x2="100%" y2="100%">
      <stop offset="0%" style="stop-color:#55efc4;stop-opacity:1" />
      <stop offset="100%" style="stop-color:#00b894;stop-opacity:1" />
    </linearGradient>
  </defs>
  <rect width="600" height="400" fill="url(#bg2)"/>
  <!-- Park ground -->
  <ellipse cx="300" cy="340" rx="250" ry="40" fill="#00a878" opacity="0.4"/>
  <!-- Trees -->
  <circle cx="100" cy="260" r="40" fill="#2ecc71" opacity="0.5"/>
  <rect x="97" y="295" width="7" height="30" fill="#636e72" opacity="0.4"/>
  <circle cx="500" cy="270" r="35" fill="#2ecc71" opacity="0.5"/>
  <rect x="498" y="300" width="6" height="25" fill="#636e72" opacity="0.4"/>
  <circle cx="150" cy="290" r="30" fill="#27ae60" opacity="0.4"/>
  <circle cx="460" cy="295" r="28" fill="#27ae60" opacity="0.4"/>
  <!-- Water Tower -->
  <!-- Tower base -->
  <rect x="260" y="180" width="80" height="140" fill="#ecf0f1"/>
  <rect x="255" y="175" width="90" height="10" fill="#bdc3c7"/>
  <!-- Tower top (tank) -->
  <rect x="245" y="110" width="110" height="70" fill="#dfe6e9" rx="5"/>
  <rect x="240" y="105" width="120" height="10" fill="#bdc3c7" rx="3"/>
  <!-- Dome -->
  <ellipse cx="300" cy="105" rx="60" ry="25" fill="#b2bec3"/>
  <ellipse cx="300" cy="100" rx="45" ry="18" fill="#dfe6e9"/>
  <!-- Spire -->
  <rect x="297" y="60" width="6" height="40" fill="#636e72"/>
  <polygon points="293,65 307,65 300,45" fill="#636e72"/>
  <!-- Windows on tower -->
  <rect x="280" y="130" width="15" height="25" fill="#00b894" rx="7" opacity="0.5"/>
  <rect x="305" y="130" width="15" height="25" fill="#00b894" rx="7" opacity="0.5"/>
  <!-- Windows on base -->
  <rect x="280" y="210" width="12" height="20" fill="#00b894" rx="6" opacity="0.5"/>
  <rect x="308" y="210" width="12" height="20" fill="#00b894" rx="6" opacity="0.5"/>
  <rect x="280" y="260" width="12" height="20" fill="#00b894" rx="6" opacity="0.5"/>
  <rect x="308" y="260" width="12" height="20" fill="#00b894" rx="6" opacity="0.5"/>
  <!-- Door -->
  <rect x="285" y="295" width="30" height="25" fill="#636e72" rx="15"/>
  <!-- Park path -->
  <path d="M200,370 Q300,310 400,370" fill="none" stroke="#bdc3c7" stroke-width="8" opacity="0.3"/>
  <!-- Label -->
  <rect x="175" y="355" width="250" height="30" fill="white" opacity="0.2" rx="15"/>
  <text x="300" y="375" text-anchor="middle" font-size="16" fill="white" font-family="'Segoe UI', sans-serif" font-weight="600">Grădina Mare - 1912</text>
</svg>